<svg width="166" height="36" viewBox="0 0 166 36" fill="none" xmlns="http://www.w3.org/2000/svg">
<g clip-path="url(#clip0_5_16)">
<path d="M27.1431 0H8.5715C3.83759 0 0 3.83759 0 8.5715V27.1431C0 31.877 3.83759 35.7146 8.5715 35.7146H27.1431C31.877 35.7146 35.7146 31.877 35.7146 27.1431V8.5715C35.7146 3.83759 31.877 0 27.1431 0Z" fill="url(#paint0_linear_5_16)"/>
<path d="M23.9337 15.7141L11.5482 23.1828C10.819 23.6203 9.8815 23.0995 9.8815 22.2453V13.912C9.8815 10.2765 13.8086 8.00563 16.9649 9.81815L21.7462 12.5682L23.9233 13.8182C24.642 14.2453 24.6525 15.287 23.9337 15.7141Z" fill="white"/>
<path d="M24.5563 21.8192L20.3375 24.2568L16.1292 26.6839C14.6188 27.5485 12.9104 27.3714 11.6708 26.4964C11.0667 26.0797 11.1395 25.1526 11.775 24.7776L25.0146 16.8401C25.6396 16.4651 26.4626 16.8192 26.5771 17.538C26.8376 19.1526 26.1709 20.8922 24.5563 21.8192Z" fill="white" fill-opacity="0.6"/>
</g>
<path d="M58.2801 8.44162H62.7363V21.3719C62.7302 22.5834 62.441 23.6426 61.8688 24.5497C61.2965 25.4507 60.5051 26.1508 59.4946 26.65C58.4901 27.1492 57.3273 27.3988 56.0063 27.3988C54.8375 27.3988 53.7752 27.1948 52.8194 26.7869C51.8697 26.3791 51.1118 25.7459 50.5456 24.8876C49.9856 24.0292 49.7086 22.9304 49.7147 21.5911H54.2165C54.2348 22.072 54.3261 22.4829 54.4905 22.8238C54.6609 23.1587 54.8953 23.4113 55.1936 23.5818C55.4919 23.7522 55.848 23.8374 56.262 23.8374C56.6942 23.8374 57.0595 23.7461 57.3578 23.5635C57.6561 23.3748 57.8813 23.0978 58.0335 22.7325C58.1918 22.3673 58.274 21.9137 58.2801 21.3719V8.44162Z" fill="white"/>
<path d="M65.0596 27.1431V8.44162H78.0995V12.1125H69.5797V15.9478H77.4329V19.6278H69.5797V23.4722H78.0995V27.1431H65.0596Z" fill="white"/>
<path d="M79.8042 12.1125V8.44162H95.6109V12.1125H89.9402V27.1431H85.484V12.1125H79.8042Z" fill="white"/>
<path d="M108.723 14.5506C108.62 14.1671 108.468 13.8292 108.267 13.537C108.066 13.2387 107.819 12.9861 107.527 12.7791C107.235 12.5721 106.9 12.4169 106.522 12.3134C106.145 12.2038 105.731 12.149 105.281 12.149C104.374 12.149 103.588 12.3682 102.925 12.8065C102.267 13.2448 101.759 13.884 101.4 14.7241C101.041 15.5582 100.861 16.5718 100.861 17.765C100.861 18.9642 101.034 19.987 101.381 20.8332C101.728 21.6793 102.231 22.3246 102.888 22.769C103.546 23.2135 104.343 23.4357 105.281 23.4357C106.109 23.4357 106.809 23.3017 107.381 23.0339C107.959 22.7599 108.398 22.3733 108.696 21.8742C108.994 21.375 109.143 20.7875 109.143 20.1118L109.983 20.2122H105.436V16.9157H113.499V19.3904C113.499 21.0645 113.143 22.4981 112.431 23.6913C111.724 24.8845 110.75 25.8007 109.509 26.4399C108.273 27.0791 106.851 27.3988 105.244 27.3988C103.46 27.3988 101.893 27.0122 100.541 26.239C99.1898 25.4659 98.1367 24.364 97.3818 22.9334C96.6269 21.4967 96.2495 19.7922 96.2495 17.8197C96.2495 16.2856 96.4778 14.925 96.9343 13.7379C97.3909 12.5447 98.0271 11.5342 98.8428 10.7063C99.6647 9.87832 100.614 9.25129 101.692 8.82515C102.776 8.39901 103.941 8.18594 105.189 8.18594C106.273 8.18594 107.28 8.34118 108.212 8.65165C109.149 8.96212 109.977 9.40044 110.696 9.9666C111.42 10.5328 112.008 11.2054 112.458 11.9847C112.908 12.7639 113.189 13.6192 113.298 14.5506H108.723Z" fill="white"/>
<path d="M133.3 17.7923C133.3 19.85 132.904 21.5941 132.113 23.0247C131.322 24.4553 130.25 25.542 128.899 26.2847C127.553 27.0274 126.044 27.3988 124.369 27.3988C122.689 27.3988 121.176 27.0244 119.831 26.2756C118.486 25.5268 117.417 24.4401 116.626 23.0156C115.841 21.585 115.448 19.8439 115.448 17.7923C115.448 15.7347 115.841 13.9906 116.626 12.56C117.417 11.1293 118.486 10.0427 119.831 9.29999C121.176 8.55729 122.689 8.18594 124.369 8.18594C126.044 8.18594 127.553 8.55729 128.899 9.29999C130.25 10.0427 131.322 11.1293 132.113 12.56C132.904 13.9906 133.3 15.7347 133.3 17.7923ZM128.68 17.7923C128.68 16.5748 128.506 15.546 128.159 14.7059C127.818 13.8658 127.325 13.2296 126.68 12.7974C126.041 12.3652 125.27 12.149 124.369 12.149C123.475 12.149 122.705 12.3652 122.059 12.7974C121.414 13.2296 120.918 13.8658 120.571 14.7059C120.23 15.546 120.059 16.5748 120.059 17.7923C120.059 19.0099 120.23 20.0387 120.571 20.8788C120.918 21.7189 121.414 22.3551 122.059 22.7873C122.705 23.2195 123.475 23.4357 124.369 23.4357C125.27 23.4357 126.041 23.2195 126.68 22.7873C127.325 22.3551 127.818 21.7189 128.159 20.8788C128.506 20.0387 128.68 19.0099 128.68 17.7923Z" fill="white"/>
<path d="M135.425 27.1431V8.44162H139.945V23.4722H147.725V27.1431H135.425Z" fill="white"/>
<path d="M156.463 27.1431H149.551V8.44162H156.454C158.36 8.44162 160 8.81602 161.376 9.56481C162.758 10.3075 163.823 11.3789 164.572 12.7791C165.321 14.1732 165.695 15.8412 165.695 17.7832C165.695 19.7313 165.321 21.4054 164.572 22.8056C163.83 24.2057 162.767 25.2802 161.385 26.029C160.003 26.7717 158.363 27.1431 156.463 27.1431ZM154.071 23.2895H156.29C157.337 23.2895 158.223 23.113 158.947 22.7599C159.678 22.4007 160.229 21.8194 160.6 21.0158C160.977 20.2061 161.166 19.1286 161.166 17.7832C161.166 16.4378 160.977 15.3664 160.6 14.5689C160.223 13.7653 159.666 13.187 158.929 12.8339C158.198 12.4747 157.297 12.2951 156.226 12.2951H154.071V23.2895Z" fill="white"/>
<defs>
<linearGradient id="paint0_linear_5_16" x1="2.66094e-07" y1="17.8573" x2="35.7146" y2="17.8573" gradientUnits="userSpaceOnUse">
<stop stop-color="#4E95FF"/>
<stop offset="1" stop-color="#376FFF"/>
</linearGradient>
<clipPath id="clip0_5_16">
<rect width="35.7146" height="35.7146" fill="white"/>
</clipPath>
</defs>
</svg>
