<?xml version="1.0" encoding="utf-8"?><svg viewBox="0 0 128 129" xmlns="http://www.w3.org/2000/svg" xmlns:xlink="http://www.w3.org/1999/xlink"><style>:root>svg{display:none}:root>svg:target{display:block}</style><svg viewBox="0 0 128 129" id="favicon" xmlns="http://www.w3.org/2000/svg"><g clip-path="url(#aclip0_2010_349)"><path d="M97.28.857H30.72C13.754.857 0 14.611 0 31.577v66.56c0 16.966 13.754 30.72 30.72 30.72h66.56c16.966 0 30.72-13.754 30.72-30.72v-66.56C128 14.611 114.246.857 97.28.857z"/><path d="M85.778 57.176l-44.39 26.768c-2.613 1.568-5.973-.299-5.973-3.36V50.717c0-13.029 14.075-21.168 25.387-14.672l17.136 9.856 7.802 4.48c2.576 1.53 2.614 5.264.038 6.795z"/><path d="M88.009 79.057l-15.12 8.736-15.082 8.699c-5.414 3.098-11.537 2.464-15.98-.672-2.164-1.494-1.903-4.816.374-6.16l47.45-28.448c2.24-1.344 5.19-.075 5.6 2.5.934 5.788-1.455 12.022-7.242 15.345z" fill-opacity=".6"/></g><defs><linearGradient id="apaint0_linear_2010_349" x1="0" y1="64.857" x2="128" y2="64.857" gradientUnits="userSpaceOnUse"><stop stop-color="#4E95FF"/><stop offset="1" stop-color="#376FFF"/></linearGradient><clipPath id="aclip0_2010_349"><path transform="translate(0 .857)" d="M0 0h128v128H0z"/></clipPath></defs></svg></svg>