<svg width="128" height="129" viewBox="0 0 128 129" fill="none" xmlns="http://www.w3.org/2000/svg">
<g clip-path="url(#clip0_2010_349)">
<path d="M97.28 0.857285H30.72C13.7538 0.857285 0 14.6111 0 31.5773V98.1373C0 115.103 13.7538 128.857 30.72 128.857H97.28C114.246 128.857 128 115.103 128 98.1373V31.5773C128 14.6111 114.246 0.857285 97.28 0.857285Z" fill="url(#paint0_linear_2010_349)"/>
<path d="M85.7777 57.176L41.3883 83.9438C38.775 85.5118 35.415 83.6451 35.415 80.5838V50.7174C35.415 37.688 49.4897 29.5492 60.8018 36.0452L77.9377 45.9012L85.7403 50.3812C88.3164 51.9118 88.3538 55.6454 85.7777 57.176Z" fill="white"/>
<path d="M88.009 79.0568L72.8891 87.7928L57.8066 96.4917C52.3932 99.5903 46.2705 98.9557 41.8279 95.8197C39.6626 94.3262 39.9237 91.0036 42.2011 89.6596L89.6517 61.2116C91.8917 59.8676 94.8411 61.1368 95.2517 63.7129C96.1851 69.4996 93.7956 75.7342 88.009 79.0568Z" fill="white" fill-opacity="0.6"/>
</g>
<defs>
<linearGradient id="paint0_linear_2010_349" x1="9.53674e-07" y1="64.8573" x2="128" y2="64.8573" gradientUnits="userSpaceOnUse">
<stop stop-color="#4E95FF"/>
<stop offset="1" stop-color="#376FFF"/>
</linearGradient>
<clipPath id="clip0_2010_349">
<rect width="128" height="128" fill="white" transform="translate(0 0.857285)"/>
</clipPath>
</defs>
</svg>
